<?xml version="1.0" encoding="UTF-8"?>
<svg width="400px" height="62px" viewBox="0 0 400 62" version="1.1" xmlns="http://www.w3.org/2000/svg" xmlns:xlink="http://www.w3.org/1999/xlink">
    <!-- Generator: Sketch 51.3 (57544) - http://www.bohemiancoding.com/sketch -->
    <title>logo</title>
    <desc>Created with Sketch.</desc>
    <defs></defs>
    <g id="logo" stroke="none" stroke-width="1" fill="none" fill-rule="evenodd">
        <path d="M23.78,5.42 L9.676,5.912 L6.806,23.05 L1.394,23.05 L2.788,1.074 L53.874,1.074 L54.858,23.05 L49.692,23.05 L46.986,5.912 L32.8,5.42 L32.8,57.162 L44.444,57.982 L44.444,62 L13.12,62 L13.12,57.982 L23.78,57.162 L23.78,5.42 Z M65.864222,38.343 C71.0029144,35.9103212 77.5081826,34.6120008 85.380222,34.448 L85.380222,32.152 C85.380222,29.5826538 85.1068914,27.5600074 84.560222,26.084 C84.0135526,24.6079926 83.070562,23.5283368 81.731222,22.845 C80.391882,22.1616633 78.4922343,21.82 76.032222,21.82 C73.2442081,21.82 70.7432331,22.2163294 68.529222,23.009 C66.3152109,23.8016706 64.1148996,24.7719943 61.928222,25.92 L59.878222,21.656 C60.5888922,21.0546637 61.9008791,20.2620049 63.814222,19.278 C65.7275649,18.2939951 67.9415428,17.4193372 70.456222,16.654 C72.9709012,15.8886628 75.4855428,15.506 78.000222,15.506 C81.8815747,15.506 84.956544,16.0389947 87.225222,17.105 C89.4939,18.1710053 91.1202171,19.8793216 92.104222,22.23 C93.0882269,24.5806784 93.580222,27.7239803 93.580222,31.66 L93.580222,57.982 L98.418222,57.982 L98.418222,61.59 C97.3248832,61.8633347 95.9445637,62.1366653 94.277222,62.41 C92.6098803,62.6833347 91.1475616,62.82 89.890222,62.82 C88.3595477,62.82 87.3208914,62.587669 86.774222,62.123 C86.2275526,61.658331 85.954222,60.6333413 85.954222,59.048 L85.954222,56.342 C84.3142138,57.9820082 82.3052339,59.4853265 79.927222,60.852 C77.5492101,62.2186735 74.8569037,62.902 71.850222,62.902 C67.9142023,62.902 64.6479017,61.767678 62.051222,59.499 C59.4545424,57.230322 58.156222,53.9640213 58.156222,49.7 C58.156222,44.5613076 60.7255296,40.7756788 65.864222,38.343 Z M80.296222,56.014 C82.154898,55.139329 83.8495477,54.1006727 85.380222,52.898 L85.380222,38.794 C79.4215255,38.794 74.9252372,39.7096575 71.891222,41.541 C68.8572068,43.3723425 67.340222,45.7639852 67.340222,48.716 C67.340222,51.6680148 68.0645481,53.840993 69.513222,55.235 C70.9618959,56.629007 72.9162097,57.326 75.376222,57.326 C76.7975624,57.326 78.437546,56.888671 80.296222,56.014 Z M106.800444,22.804 L100.896444,21.328 L100.896444,16.9 L112.622444,15.424 L112.868444,15.424 L114.590444,16.9 L114.590444,20.344 L114.508444,22.312 C116.476454,20.5626579 119.073095,18.9773404 122.298444,17.556 C125.523793,16.1346596 128.612429,15.424 131.564444,15.424 C135.008461,15.424 137.673435,16.0799934 139.559444,17.392 C141.445453,18.7040066 142.771107,20.7129865 143.536444,23.419 C144.301781,26.1250135 144.684444,29.773977 144.684444,34.366 L144.684444,57.326 L150.424444,57.9 L150.424444,62 L130.990444,62 L130.990444,57.982 L136.074444,57.326 L136.074444,34.284 C136.074444,31.0586505 135.85578,28.5303425 135.418444,26.699 C134.981108,24.8676575 134.161117,23.5010045 132.958444,22.599 C131.755771,21.6969955 130.006455,21.246 127.710444,21.246 C125.742434,21.246 123.637789,21.7379951 121.396444,22.722 C119.155099,23.7060049 117.159786,24.8539934 115.410444,26.166 L115.410444,57.244 L120.986444,57.982 L120.986444,62 L101.634444,62 L101.634444,57.982 L106.800444,57.244 L106.800444,22.804 Z M158.396666,0.828 L152.000666,-0.074 L152.000666,-3.6 L165.038666,-5.158 L165.120666,-5.158 L166.924666,-3.928 L166.924666,36.17 L166.760666,41.008 L185.702666,21.41 L179.552666,20.262 L179.552666,16.49 L199.396666,16.49 L199.396666,20.262 L192.918666,21.41 L180.864666,33.136 L196.444666,57.326 L201.528666,57.982 L201.528666,62 L181.602666,62 L181.602666,57.982 L186.768666,57.244 L175.206666,38.22 L166.760666,46.584 L166.924666,50.766 L166.924666,57.244 L172.746666,57.982 L172.746666,62 L153.230666,62 L153.230666,57.982 L158.396666,57.244 L158.396666,0.828 Z M206.015888,56.424 C202.544537,52.1053117 200.808888,46.3380361 200.808888,39.122 C200.808888,34.3659762 201.710879,30.184018 203.514888,26.576 C205.318897,22.967982 207.847205,20.1800098 211.099888,18.212 C214.352571,16.2439902 218.056201,15.26 222.210888,15.26 C227.294913,15.26 231.244541,16.6676526 234.059888,19.483 C236.875235,22.2983474 238.364887,26.3299738 238.528888,31.578 C238.528888,34.9126833 238.337557,37.4546579 237.954888,39.204 L209.746888,39.204 C209.856222,44.6160271 211.113543,48.9756501 213.518888,52.283 C215.924233,55.5903499 219.340866,57.244 223.768888,57.244 C225.955566,57.244 228.237876,56.8476706 230.615888,56.055 C232.9939,55.2623294 234.838881,54.3193388 236.150888,53.226 L237.708888,56.834 C236.123547,58.4740082 233.772904,59.8953273 230.656888,61.098 C227.540872,62.3006727 224.370237,62.902 221.144888,62.902 C214.530188,62.902 209.487239,60.7426883 206.015888,56.424 Z M229.508888,34.858 C229.672889,33.7099943 229.754888,32.5346727 229.754888,31.332 C229.700221,27.7786489 228.948562,24.9770102 227.499888,22.927 C226.051214,20.8769898 223.768904,19.852 220.652888,19.852 C217.482205,19.852 214.953897,20.9999885 213.067888,23.296 C211.181879,25.5920115 210.102223,29.4459729 209.828888,34.858 L229.508888,34.858 Z M243.46711,57.982 L249.61711,57.49 L249.61711,22.804 L243.71311,21.328 L243.71311,16.9 L255.02911,15.424 L255.19311,15.424 L256.99711,16.9 L256.99711,18.376 L256.75111,24.772 L256.99711,24.772 C257.543779,23.842662 258.52777,22.6400074 259.94911,21.164 C261.37045,19.6879926 263.201765,18.3350061 265.44311,17.105 C267.684455,15.8749938 270.117097,15.26 272.74111,15.26 C273.834449,15.26 274.73644,15.3966653 275.44711,15.67 L275.44711,24.854 C275.064441,24.5806653 274.449448,24.3210012 273.60211,24.075 C272.754772,23.8289988 271.811782,23.706 270.77311,23.706 C266.235754,23.706 262.026463,25.0999861 258.14511,27.888 L258.14511,57.408 L268.55911,58.064 L268.55911,62 L243.46711,62 L243.46711,57.982 Z M286.207332,55.44 C286.754001,56.2600041 287.915656,56.9979967 289.692332,57.654 C291.469008,58.3100033 293.341322,58.638 295.309332,58.638 C298.425348,58.638 300.721325,58.0366727 302.197332,56.834 C303.673339,55.6313273 304.411332,53.9640107 304.411332,51.832 C304.411332,50.3559926 303.94667,49.0713388 303.017332,47.978 C302.087994,46.8846612 300.789674,45.9143376 299.122332,45.067 C297.45499,44.2196624 295.063348,43.1946727 291.947332,41.992 C287.737978,40.4066587 284.663008,38.5070111 282.722332,36.293 C280.781656,34.0789889 279.811332,31.168018 279.811332,27.56 C279.811332,25.1546546 280.535658,23.050009 281.984332,21.246 C283.433006,19.441991 285.428319,18.0343384 287.970332,17.023 C290.512345,16.0116616 293.341316,15.506 296.457332,15.506 C298.972011,15.506 301.172323,15.6973314 303.058332,16.08 C304.944341,16.4626686 306.461326,16.8453314 307.609332,17.228 C308.757338,17.6106686 309.522663,17.8566661 309.905332,17.966 L309.905332,28.134 L304.903332,28.134 L303.263332,22.066 C302.93533,21.4099967 302.060672,20.849669 300.639332,20.385 C299.217992,19.920331 297.632674,19.688 295.883332,19.688 C293.42332,19.688 291.441673,20.2346612 289.938332,21.328 C288.434991,22.4213388 287.683332,23.897324 287.683332,25.756 C287.683332,27.3960082 288.079661,28.7489947 288.872332,29.815 C289.665003,30.8810053 290.662659,31.7419967 291.865332,32.398 C293.068005,33.0540033 294.707988,33.819329 296.785332,34.694 L298.425332,35.35 C301.486681,36.5526727 303.973989,37.7006612 305.887332,38.794 C307.800675,39.8873388 309.399659,41.3223244 310.684332,43.099 C311.969005,44.8756755 312.611332,47.0486538 312.611332,49.618 C312.611332,53.6633536 311.039681,56.8886546 307.896332,59.294 C304.752983,61.6993454 300.448026,62.902 294.981332,62.902 C292.302652,62.902 289.501013,62.5330037 286.576332,61.795 C283.651651,61.0569963 281.260008,60.3053372 279.401332,59.54 L279.401332,49.044 L284.731332,49.044 L286.207332,55.44 Z M323.699554,0.828 L317.057554,-0.074 L317.057554,-3.6 L330.259554,-5.158 L330.423554,-5.158 L332.227554,-3.928 L332.227554,57.326 L339.197554,57.982 L339.197554,62 L317.057554,62 L317.057554,57.982 L323.699554,57.244 L323.699554,0.828 Z M346.636776,82.254 C345.734771,82.1446661 345.092445,81.9806678 344.709776,81.762 L344.709776,74.628 C345.037778,74.8466678 345.680105,75.0106661 346.636776,75.12 C347.593447,75.2293339 348.509105,75.284 349.383776,75.284 C352.007789,75.284 354.317433,74.3683425 356.312776,72.537 C358.308119,70.7056575 360.2351,67.1933593 362.093776,62 L358.157776,62 L342.577776,21.41 L338.805776,20.344 L338.805776,16.49 L358.567776,16.49 L358.567776,20.344 L352.253776,21.328 L360.289776,45.518 L364.061776,57.49 L367.587776,45.436 L374.885776,21.328 L369.391776,20.344 L369.391776,16.49 L385.873776,16.49 L385.873776,20.344 L381.773776,21.328 C373.737736,45.928123 369.009116,59.8953167 367.587776,63.23 C365.7291,67.9313568 364.03445,71.6076534 362.503776,74.259 C360.973102,76.9103466 359.16912,78.932993 357.091776,80.327 C355.014432,81.721007 352.445125,82.418 349.383776,82.418 C348.454438,82.418 347.538781,82.3633339 346.636776,82.254 Z" id="Tankersly" fill="#FFFFFF"></path>
    </g>
</svg>